<svg xmlns="http://www.w3.org/2000/svg" id="Outline" viewBox="0 0 512 512" width="300" height="300" version="1.1" xmlns:xlink="http://www.w3.org/1999/xlink" xmlns:svgjs="http://svgjs.dev/svgjs"><g width="100%" height="100%" transform="matrix(1,0,0,1,0,0)"><path d="M40,488a8,8,0,0,0,8,8H464a8,8,0,0,0,8-8V40a8,8,0,0,0-8-8H440V24a8,8,0,0,0-8-8H48a8,8,0,0,0-8,8ZM456,48V480H440V48ZM56,32H424V480H56Z" fill="#ffffff" fill-opacity="1" data-original-color="#000000ff" stroke="none" stroke-opacity="1"/><path d="M80,72H304a8,8,0,0,0,0-16H80a8,8,0,0,0,0,16Z" fill="#ffffff" fill-opacity="1" data-original-color="#000000ff" stroke="none" stroke-opacity="1"/><path d="M80,104H224a8,8,0,0,0,0-16H80a8,8,0,0,0,0,16Z" fill="#ffffff" fill-opacity="1" data-original-color="#000000ff" stroke="none" stroke-opacity="1"/><path d="M168,120a88,88,0,1,0,88,88A88.1,88.1,0,0,0,168,120Zm71.545,80H176V136.455A72.123,72.123,0,0,1,239.545,200ZM96,208a72.1,72.1,0,0,1,64-71.545V208a7.971,7.971,0,0,0,.693,3.248h0l29.061,65.386A72,72,0,0,1,96,208Zm108.358,62.107L180.31,216h59.235A72.1,72.1,0,0,1,204.358,270.107Z" fill="#ffffff" fill-opacity="1" data-original-color="#000000ff" stroke="none" stroke-opacity="1"/><path d="M400,136H288a8,8,0,0,0,0,16H400a8,8,0,0,0,0-16Z" fill="#ffffff" fill-opacity="1" data-original-color="#000000ff" stroke="none" stroke-opacity="1"/><path d="M400,168H288a8,8,0,0,0,0,16H400a8,8,0,0,0,0-16Z" fill="#ffffff" fill-opacity="1" data-original-color="#000000ff" stroke="none" stroke-opacity="1"/><path d="M400,200H288a8,8,0,0,0,0,16H400a8,8,0,0,0,0-16Z" fill="#ffffff" fill-opacity="1" data-original-color="#000000ff" stroke="none" stroke-opacity="1"/><path d="M400,232H288a8,8,0,0,0,0,16H400a8,8,0,0,0,0-16Z" fill="#ffffff" fill-opacity="1" data-original-color="#000000ff" stroke="none" stroke-opacity="1"/><path d="M400,264H288a8,8,0,0,0,0,16H400a8,8,0,0,0,0-16Z" fill="#ffffff" fill-opacity="1" data-original-color="#000000ff" stroke="none" stroke-opacity="1"/><path d="M192,344H80a8,8,0,0,0,0,16H192a8,8,0,0,0,0-16Z" fill="#ffffff" fill-opacity="1" data-original-color="#000000ff" stroke="none" stroke-opacity="1"/><path d="M192,312H80a8,8,0,0,0,0,16H192a8,8,0,0,0,0-16Z" fill="#ffffff" fill-opacity="1" data-original-color="#000000ff" stroke="none" stroke-opacity="1"/><path d="M192,376H80a8,8,0,0,0,0,16H192a8,8,0,0,0,0-16Z" fill="#ffffff" fill-opacity="1" data-original-color="#000000ff" stroke="none" stroke-opacity="1"/><path d="M192,408H80a8,8,0,0,0,0,16H192a8,8,0,0,0,0-16Z" fill="#ffffff" fill-opacity="1" data-original-color="#000000ff" stroke="none" stroke-opacity="1"/><path d="M192,440H80a8,8,0,0,0,0,16H192a8,8,0,0,0,0-16Z" fill="#ffffff" fill-opacity="1" data-original-color="#000000ff" stroke="none" stroke-opacity="1"/><path d="M400,336H368a8,8,0,0,0-8,8v8H344V312a8,8,0,0,0-8-8H304a8,8,0,0,0-8,8v40H280V328a8,8,0,0,0-8-8H240a8,8,0,0,0-8,8V456a8,8,0,0,0,8,8H400a8,8,0,0,0,8-8V344A8,8,0,0,0,400,336Zm-40,32v80H344V368Zm-48-48h16V448H312V320Zm-16,48v80H280V368Zm-48-32h16V448H248ZM392,448H376V352h16Z" fill="#ffffff" fill-opacity="1" data-original-color="#000000ff" stroke="none" stroke-opacity="1"/></g></svg>