<svg id="Layer_1" enable-background="new 0 0 48 48" viewBox="0 0 48 48" xmlns="http://www.w3.org/2000/svg" width="300" height="300" version="1.1" xmlns:xlink="http://www.w3.org/1999/xlink" xmlns:svgjs="http://svgjs.dev/svgjs"><g width="100%" height="100%" transform="matrix(1,0,0,1,0,0)"><g><path d="m24 34.77c5.94 0 10.77-4.83 10.77-10.77s-4.83-10.77-10.77-10.77-10.77 4.83-10.77 10.77 4.83 10.77 10.77 10.77zm0-19.54c4.83 0 8.77 3.93 8.77 8.77s-3.93 8.77-8.77 8.77-8.77-3.93-8.77-8.77 3.94-8.77 8.77-8.77z" fill="#ffffff" fill-opacity="1" data-original-color="#000000ff" stroke="none" stroke-opacity="1"/><path d="m.5 26.62c0 1.57 1.27 2.84 2.84 2.84h3.34c.32 1.01.72 2 1.21 2.93l-2.36 2.36c-.53.54-.83 1.25-.83 2.01s.3 1.47.83 2.01l3.7 3.7c1.07 1.07 2.94 1.07 4.01 0l2.36-2.36c.94.49 1.92.89 2.93 1.21v3.34c0 1.57 1.27 2.84 2.84 2.84h5.24c1.56 0 2.84-1.27 2.84-2.84v-3.34c1.02-.32 2-.72 2.93-1.21l2.36 2.36c1.07 1.07 2.94 1.07 4.01 0l3.7-3.7c1.11-1.11 1.11-2.91 0-4.01l-2.36-2.36c.49-.93.89-1.92 1.21-2.93h3.35c1.56 0 2.84-1.27 2.84-2.84v-5.24c0-1.56-1.27-2.84-2.84-2.84h-3.35c-.32-1.02-.72-2-1.21-2.93l2.36-2.36c1.11-1.11 1.11-2.91 0-4.01l-3.7-3.7c-1.07-1.07-2.94-1.07-4.01 0l-2.36 2.36c-.93-.5-1.91-.91-2.92-1.23v-3.34c0-1.57-1.27-2.84-2.84-2.84h-5.24c-1.57 0-2.84 1.27-2.84 2.84v3.34c-1.01.32-2 .72-2.93 1.21l-2.36-2.36c-1.11-1.11-2.91-1.11-4.01 0l-3.7 3.7c-1.11 1.11-1.11 2.91 0 4.01l2.36 2.36c-.49.95-.9 1.93-1.22 2.94h-3.34c-1.57 0-2.84 1.27-2.84 2.84zm2-5.24c0-.46.38-.84.84-.84h4.86l.2-.74c.37-1.36.9-2.66 1.6-3.87l.38-.66-3.44-3.44c-.33-.33-.33-.86 0-1.19l3.7-3.7c.32-.32.87-.32 1.19 0l3.44 3.44.67-.38c1.2-.7 2.5-1.23 3.87-1.6l.74-.2v-4.86c0-.46.38-.84.84-.84h5.24c.46 0 .84.38.84.84v4.86l.74.2c1.36.37 2.66.9 3.87 1.6l.67.38 3.44-3.44c.31-.32.87-.32 1.18 0l3.7 3.7c.16.16.25.37.25.59s-.09.43-.25.59l-3.44 3.44.37.67c.7 1.2 1.23 2.5 1.6 3.87l.2.74h4.86c.46 0 .84.38.84.84v5.24c0 .46-.38.84-.84.84h-4.86l-.2.74c-.37 1.36-.9 2.66-1.6 3.87l-.38.66 3.44 3.44c.33.33.33.86 0 1.19l-3.7 3.7c-.32.32-.87.32-1.18 0l-3.44-3.44-.67.38c-1.2.7-2.5 1.23-3.87 1.6l-.74.2v4.86c0 .46-.38.84-.84.84h-5.24c-.46 0-.84-.38-.84-.84v-4.86l-.74-.2c-1.36-.37-2.66-.9-3.87-1.6l-.67-.38-3.44 3.43c-.32.32-.87.32-1.19 0l-3.7-3.7c-.16-.16-.25-.37-.25-.59s.09-.43.25-.59l3.44-3.44-.37-.67c-.7-1.2-1.23-2.5-1.6-3.87l-.2-.74h-4.86c-.46 0-.84-.38-.84-.84z" fill="#ffffff" fill-opacity="1" data-original-color="#000000ff" stroke="none" stroke-opacity="1"/></g></g></svg>