<svg xmlns="http://www.w3.org/2000/svg" id="Layer_3" data-name="Layer 3" viewBox="0 0 24 24" width="300" height="300" version="1.1" xmlns:xlink="http://www.w3.org/1999/xlink" xmlns:svgjs="http://svgjs.dev/svgjs"><g width="100%" height="100%" transform="matrix(1,0,0,1,0,0)"><path d="M5,17.5a1.5,1.5,0,0,0,0-3A1.5017,1.5017,0,0,1,3.5,13V10A1.497,1.497,0,0,1,4.5313,8.5824a7.4915,7.4915,0,0,0,2.5166,5.047A8.2346,8.2346,0,0,1,9.9834,19.5H9A3.5042,3.5042,0,0,0,5.5,23a.5.5,0,0,0,.5.5H18a.5.5,0,0,0,.5-.5A3.5042,3.5042,0,0,0,15,19.5h-.9834a8.2346,8.2346,0,0,1,2.9355-5.8706,7.4915,7.4915,0,0,0,2.5166-5.047A1.497,1.497,0,0,1,20.5,10v3A1.5017,1.5017,0,0,1,19,14.5a1.5,1.5,0,0,0,0,3A4.505,4.505,0,0,0,23.5,13V9a4.49,4.49,0,0,0-4-4.4495V3.4079A1.4963,1.4963,0,0,0,19,.5H5a1.4963,1.4963,0,0,0-.5,2.9079V4.5505A4.49,4.49,0,0,0,.5,9v4A4.505,4.505,0,0,0,5,17.5Zm12.45,5H6.55A2.5053,2.5053,0,0,1,9,20.5h6A2.5053,2.5053,0,0,1,17.45,22.5ZM16.292,12.8784A9.22,9.22,0,0,0,13.0049,19.5h-2.01A9.22,9.22,0,0,0,7.708,12.8784,6.4969,6.4969,0,0,1,5.5,8V3.5h13V8A6.4969,6.4969,0,0,1,16.292,12.8784ZM22.5,9v4A3.5042,3.5042,0,0,1,19,16.5a.5.5,0,0,1,0-1A2.5026,2.5026,0,0,0,21.5,13V10a2.5043,2.5043,0,0,0-2-2.45V5.5356A3.5049,3.5049,0,0,1,22.5,9ZM5,1.5H19a.5.5,0,0,1,0,1H5a.5.5,0,0,1,0-1ZM1.5,9a3.5049,3.5049,0,0,1,3-3.4644V7.55A2.5043,2.5043,0,0,0,2.5,10v3A2.5026,2.5026,0,0,0,5,15.5a.5.5,0,0,1,0,1A3.5042,3.5042,0,0,1,1.5,13Z" fill="#ffffff" fill-opacity="1" data-original-color="#000000ff" stroke="none" stroke-opacity="1"/><path d="M15.457,6.8975l-1.5215-.2212a.22.22,0,0,1-.164-.1192l-.68-1.3784v0a1.2177,1.2177,0,0,0-2.1836,0l-.68,1.3784a.22.22,0,0,1-.164.1192L8.543,6.8975a1.2163,1.2163,0,0,0-.6739,2.0756l1.1,1.0728a.2157.2157,0,0,1,.0625.1929l-.26,1.5156a1.2154,1.2154,0,0,0,1.7666,1.2827l1.36-.7153a.22.22,0,0,1,.2032,0l1.36.7153a1.2172,1.2172,0,0,0,1.7666-1.2827l-.26-1.5161a.2154.2154,0,0,1,.0615-.1919l1.1006-1.0733a1.2163,1.2163,0,0,0-.6739-2.0756Zm-.0234,1.36L14.332,9.3311a1.2193,1.2193,0,0,0-.35,1.0766l.26,1.5156a.2171.2171,0,0,1-.3154.229l-1.36-.7153a1.2167,1.2167,0,0,0-1.1328,0l-1.36.7153a.2172.2172,0,0,1-.3154-.229l.26-1.5151A1.2191,1.2191,0,0,0,9.667,9.3306L8.5664,8.2573a.2173.2173,0,0,1,.1211-.3706l1.5215-.2212A1.2176,1.2176,0,0,0,11.125,7l.68-1.3779a.2176.2176,0,0,1,.3906,0L12.875,7a1.2176,1.2176,0,0,0,.916.666l1.5215.2212a.2173.2173,0,0,1,.1211.3706Z" fill="#ffffff" fill-opacity="1" data-original-color="#000000ff" stroke="none" stroke-opacity="1"/></g></svg>