<svg id="Layer_1" viewBox="0 0 64 64" xmlns="http://www.w3.org/2000/svg" data-name="Layer 1" width="300" height="300" version="1.1" xmlns:xlink="http://www.w3.org/1999/xlink" xmlns:svgjs="http://svgjs.dev/svgjs"><g width="100%" height="100%" transform="matrix(1,0,0,1,0,0)"><path d="m13.817 35.944h24.028c.552 0 1-.448 1-1v-11.169c0-.552-.448-1-1-1h-7.009v-4.714c0-.552-.448-1-1-1h-8.009c-.552 0-1 .448-1 1v4.714h-7.01c-.552 0-1 .448-1 1v11.169c0 .552.448 1 1 1zm23.028-11.169v9.169h-6.009v-9.169zm-14.019-5.714h6.009v14.883h-6.009zm-8.01 5.714h6.01v9.169h-6.01z" fill="#ffffff" fill-opacity="1" data-original-color="#000000ff" stroke="none" stroke-opacity="1"/><path d="m4.052 57.74c0 2.349 1.916 4.26 4.27 4.26h35.02c2.354 0 4.27-1.911 4.27-4.26v-16.836l11.476-16.527c.733-1.056 1.012-2.335.784-3.601-.229-1.266-.936-2.367-1.992-3.1-2.18-1.514-5.186-.972-6.701 1.208l-3.567 5.137v-13.442c0-2.354-1.916-4.27-4.27-4.27h-4.106v-1.437c0-1.584-1.289-2.874-2.874-2.874h-21.064c-1.584 0-2.874 1.289-2.874 2.874v1.437h-4.103c-2.354 0-4.27 1.916-4.27 4.27v47.16zm36.322-11.003-4.31 2.355.702-4.861 1.804 1.253zm1.648-1.29-2.312-1.605-2.312-1.605 11.065-15.935 4.624 3.211-11.065 15.935zm8.54-22.168 4.624 3.211-.958 1.38-4.624-3.211zm2.259-3.253c.429-.618 1.073-1.031 1.812-1.165.74-.132 1.488.03 2.105.458.618.429 1.031 1.073 1.165 1.812s-.029 1.487-.458 2.105l-1.118 1.61-4.624-3.211 1.118-1.61zm-37.523-16.026h21.063c.482 0 .874.392.874.874v2.42c0 .006-.003.011-.003.017s.003.011.003.017v2.414c0 .482-.392.874-.874.874h-21.063c-.481 0-.874-.392-.874-.874v-2.419s.002-.008.002-.012-.002-.008-.002-.012v-2.425c0-.481.392-.874.874-.874zm-9.246 6.58c0-1.251 1.019-2.27 2.27-2.27h4.103v1.431c0 1.585 1.289 2.874 2.874 2.874h21.063c1.585 0 2.874-1.289 2.874-2.874v-1.431h4.106c1.251 0 2.27 1.019 2.27 2.27v16.322l-10.426 15.015c-.007.011-.008.023-.015.034-.057.088-.098.185-.125.289-.006.022-.014.043-.018.066-.002.013-.009.025-.011.039l-1.218 8.443c-.054.375.108.748.419.964.171.119.37.179.57.179.165 0 .33-.041.479-.123l7.485-4.091c.014-.007.024-.019.037-.027.021-.013.038-.028.058-.042.084-.06.157-.13.219-.211.008-.011.021-.016.029-.028l2.517-3.625v13.956c0 1.246-1.019 2.26-2.27 2.26h-35.02c-1.251 0-2.27-1.014-2.27-2.26z" fill="#ffffff" fill-opacity="1" data-original-color="#000000ff" stroke="none" stroke-opacity="1"/><path d="m9.574 42.258h10.131c.552 0 1-.448 1-1s-.448-1-1-1h-10.131c-.552 0-1 .448-1 1s.448 1 1 1z" fill="#ffffff" fill-opacity="1" data-original-color="#000000ff" stroke="none" stroke-opacity="1"/><path d="m9.574 47.097h20.263c.552 0 1-.448 1-1s-.448-1-1-1h-20.263c-.552 0-1 .448-1 1s.448 1 1 1z" fill="#ffffff" fill-opacity="1" data-original-color="#000000ff" stroke="none" stroke-opacity="1"/><path d="m9.574 51.936h20.263c.552 0 1-.448 1-1s-.448-1-1-1h-20.263c-.552 0-1 .448-1 1s.448 1 1 1z" fill="#ffffff" fill-opacity="1" data-original-color="#000000ff" stroke="none" stroke-opacity="1"/></g></svg>